# xmcd CD database file generated by GCD 2.95
# 
# Track frame offsets:
#       150
#       2169
#       12651
#       15100
#       24662
#       26400
#       40028
#       54471
#       57745
#       70129
#       71912
#       87900
#       90467
#       101727
#       107775
#       117534
#       129174
#       145984
#       150916
#       163921
#       178058
#       193050
#       204739
#       207390
#       220321
#       224759
#       237382
#       239135
#       251965
#       254225
#       267287
#       268749
#       279054
#       280815
#       293616
#       296766
# 
# Disc length: 4135 seconds
# 
# Revision: 3
# Processed by: cddbd v1.5PL3 Copyright (c) Steve Scherf et al.
# Submitted via: GCD 2.95
# 
DISCID=39102524
DTITLE=Hank Williams III - 2004-01-14 Little Rock Disc 1
DYEAR=1900
DGENRE=
TTITLE0=Introduction
TTITLE1=Straight To Hell
TTITLE2="applause"
TTITLE3=Thrown Out Of Every Bar
TTITLE4="..to all those farmers.."
TTITLE5=Little Bit Of Smoke and A Whole Lotta Wine
TTITLE6=I Don't Know
TTITLE7="..my other runnin' buddy"
TTITLE8=87 Southbound
TTITLE9="applause"
TTITLE10=7 Months, 39 Days
TTITLE11="..when you get out of jail.."
TTITLE12=Even Though I'm Broke
TTITLE13=Long Haired Redneck
TTITLE14=If You Don't Like Hank Williams
TTITLE15=I'd Still Want You
TTITLE16=Cocaine Blues
TTITLE17="need a few more outlaws"
TTITLE18=Trashville
TTITLE19=Nighttime Ramblin' Man
TTITLE20=Wine Spo-dee-odee - Gone, Gone, Gone
TTITLE21=The Devil Is My Friend
TTITLE22="applause"
TTITLE23=Country Heroes
TTITLE24="..dedicated to the FM radio.."
TTITLE25=Dick In Dixie
TTITLE26="..gonna slow it down.."
TTITLE27=One Horse Town
TTITLE28="...middle ground..."
TTITLE29=Life Of Sin
TTITLE30="applause"
TTITLE31=Go Fuck You
TTITLE32="..going there in a minute..."
TTITLE33=Hellbilly
TTITLE34="appareciate everybody coming out"
TTITLE35=White Trash 2
EXTD=
EXTT0=
EXTT1=
EXTT2=
EXTT3=
EXTT4=
EXTT5=
EXTT6=
EXTT7=
EXTT8=
EXTT9=
EXTT10=
EXTT11=
EXTT12=
EXTT13=
EXTT14=
EXTT15=
EXTT16=
EXTT17=
EXTT18=
EXTT19=
EXTT20=
EXTT21=
EXTT22=
EXTT23=
EXTT24=
EXTT25=
EXTT26=
EXTT27=
EXTT28=
EXTT29=
EXTT30=
EXTT31=
EXTT32=
EXTT33=
EXTT34=
EXTT35=
PLAYORDER=
